# xmcd
# 
# Track frame offsets:
#     150
#     26750
#     42202
#     67515
#     80575
#     100300
#     118930
#     133275
# 
# Disc length: 2026
# 
# Revision: 2
# Processed by: cddbd v1.5.2PL0 Copyright (c) Steve Scherf et al.
# Submitted via: BonkEnc v1.0.5
# 
DISCID=6907e808
DTITLE=Hank Crawford - Help me make it through the night
DYEAR=1972
DGENRE=Jazz
TTITLE0=Help Me Make It Through The Night
TTITLE1=Brian's Song
TTITLE2=Uncle Funky (aka Bowl Full O'blues)
TTITLE3=In The Wee Small Hours Of The Morning
TTITLE4=Go Away Little Girl
TTITLE5=Imagine
TTITLE6=Ham
TTITLE7=The Sun Died (aka Il Est Mort Le Soleil)
EXTD=YEAR: 1972
EXTT0=
EXTT1=
EXTT2=
EXTT3=
EXTT4=
EXTT5=
EXTT6=
EXTT7=
PLAYORDER=
